<!-- Generated by IcoMoon.io -->
<svg version="1.1" xmlns="http://www.w3.org/2000/svg" width="32" height="32" viewBox="0 0 32 32">
<title>delete</title>
<path d="M12.992 2c-1.64 0-2.992 1.351-2.992 2.992v1.008h-6v2h2v17c0 1.648 1.351 3 3 3h12c1.648 0 3-1.352 3-3v-17h2v-2h-6v-1.008c0-1.64-1.352-2.992-2.992-2.992zM12.992 4h4.016c0.562 0 0.992 0.43 0.992 0.992v1.008h-6v-1.008c0-0.562 0.43-0.992 0.992-0.992zM8 8h14v17c0 0.563-0.438 1-1 1h-12c-0.563 0-1-0.438-1-1zM10 10v14h2v-14zM14 10v14h2v-14zM18 10v14h2v-14z"></path>
</svg>
