<!-- Generated by IcoMoon.io -->
<svg version="1.1" xmlns="http://www.w3.org/2000/svg" width="32" height="32" viewBox="0 0 32 32">
<title>file-add</title>
<path d="M26.875 24h-4.875v-4.875c0-0.622-0.503-1.125-1.125-1.125s-1.125 0.503-1.125 1.125v4.875h-4.625c-0.622 0-1.125 0.503-1.125 1.125s0.503 1.125 1.125 1.125h4.625v4.625c0 0.622 0.503 1.125 1.125 1.125s1.125-0.503 1.125-1.125v-4.625h4.875c0.622 0 1.125-0.503 1.125-1.125s-0.503-1.125-1.125-1.125zM27.347 9.431l-8.688-8.766c-0.141-0.141-0.297-0.259-0.462-0.359-0.044-0.025-0.091-0.050-0.137-0.072-0.028-0.016-0.059-0.028-0.087-0.041-0.284-0.125-0.594-0.194-0.909-0.194h-10.813c-1.244 0-2.25 1.006-2.25 2.25v27.5c0 1.244 1.006 2.25 2.25 2.25h6.625c0.622 0 1.125-0.503 1.125-1.125s-0.503-1.125-1.125-1.125h-6.625v-27.5h9.75v7.5c0 1.244 1.006 2.25 2.25 2.25h7.5v4.875c0 0.622 0.503 1.125 1.125 1.125s1.125-0.503 1.125-1.125v-5.859c0-0.594-0.234-1.162-0.653-1.584zM18.25 9.75v-6.3l6.244 6.3h-6.244z"></path>
</svg>
