<!-- Generated by IcoMoon.io -->
<svg version="1.1" xmlns="http://www.w3.org/2000/svg" width="32" height="32" viewBox="0 0 32 32">
<title>folder-add</title>
<path d="M30.875 20h-4.875v-4.875c0-0.622-0.503-1.125-1.125-1.125s-1.125 0.503-1.125 1.125v4.875h-4.625c-0.622 0-1.125 0.503-1.125 1.125s0.503 1.125 1.125 1.125h4.625v4.625c0 0.622 0.503 1.125 1.125 1.125s1.125-0.503 1.125-1.125v-4.625h4.875c0.622 0 1.125-0.503 1.125-1.125s-0.503-1.125-1.125-1.125zM29.75 6h-14.469l-0.781-2.434c-0.297-0.934-1.162-1.566-2.144-1.566h-10.106c-1.244 0-2.25 1.006-2.25 2.25v21.5c0 1.244 1.006 2.25 2.25 2.25h14.625c0.622 0 1.125-0.503 1.125-1.125s-0.503-1.125-1.125-1.125h-14.625v-17.5h27.5v4.625c0 0.622 0.503 1.125 1.125 1.125s1.125-0.503 1.125-1.125v-4.625c0-1.244-1.006-2.25-2.25-2.25zM2.25 6v-1.75h10.106l0.559 1.75h-10.666z"></path>
</svg>
