<!-- Generated by IcoMoon.io -->
<svg version="1.1" xmlns="http://www.w3.org/2000/svg" width="32" height="32" viewBox="0 0 32 32">
<title>modify</title>
<path d="M31.094 3.781q0.125 0.281 0.203 0.656t0.078 0.781-0.156 0.813-0.5 0.781q-0.375 0.375-0.672 0.656t-0.516 0.5q-0.25 0.25-0.469 0.438l-5.844-5.844q0.375-0.344 0.891-0.828t0.859-0.766q0.438-0.344 0.906-0.484t0.922-0.125 0.875 0.141 0.734 0.281q0.656 0.344 1.453 1.203t1.234 1.797zM6.75 19.031q0.188-0.188 0.875-0.891t1.719-1.734l11.531-11.531 5.844 5.875-6.719 6.719-2.5 2.531q-1.25 1.219-2.25 2.234t-1.656 1.672-0.781 0.75q-0.313 0.281-0.719 0.594t-0.844 0.5q-0.438 0.219-1.281 0.531t-1.766 0.609-1.75 0.516-1.234 0.281q-0.844 0.094-1.125-0.25t-0.156-1.156q0.063-0.438 0.297-1.266t0.5-1.719 0.516-1.641 0.406-1.031q0.188-0.438 0.422-0.797t0.672-0.797z"></path>
</svg>
